control3min_grf.mot
version=1
nRows=25
nColumns 19
inDegrees=yes
endheader
time	1_ground_force_vx	1_ground_force_vy	1_ground_force_vz	1_ground_force_px	1_ground_force_py	1_ground_force_pz	1_ground_torque_x	1_ground_torque_y	1_ground_torque_z	2_ground_force_vx	2_ground_force_vy	2_ground_force_vz	2_ground_force_px	2_ground_force_py	2_ground_force_pz	2_ground_torque_x	2_ground_torque_y	2_ground_torque_z
            0.005000	           17.942215	          184.485060	          -15.532823	           -0.212692	            0.006238	           -0.408045	           -0.009369	           -0.096338	            0.008111	           11.747932	          147.322643	           11.830100	           -0.224049	            0.005547	           -0.661779	            0.000443	            0.005550	            0.000446
            0.005500	           17.851968	          180.337752	          -15.275238	           -0.213054	            0.006241	           -0.408769	           -0.005756	           -0.058147	            0.004925	           11.802716	          145.113367	           11.728339	           -0.224834	            0.005546	           -0.662397	            0.000408	            0.005011	            0.000405
            0.006000	           17.944505	          178.173795	          -15.101317	           -0.212758	            0.006240	           -0.408350	           -0.000636	           -0.006316	            0.000535	           11.577792	          142.534293	           11.766168	           -0.225014	            0.005546	           -0.662673	            0.007640	            0.094051	            0.007764
            0.006500	           17.853950	          173.846811	          -14.982073	           -0.213227	            0.006242	           -0.408982	            0.002020	            0.019669	           -0.001695	           11.491239	          140.509654	           11.383555	           -0.225011	            0.005550	           -0.663720	            0.002852	            0.034876	            0.002826
            0.007000	           17.808485	          171.143014	          -15.039410	           -0.212806	            0.006240	           -0.408462	            0.002444	            0.023490	           -0.002064	           11.828575	          137.932077	           11.561929	           -0.224738	            0.005551	           -0.663813	            0.002738	            0.031927	            0.002676
            0.007500	           17.763593	          168.438234	          -14.867467	           -0.212742	            0.006237	           -0.407795	           -0.004097	           -0.038849	            0.003429	           11.559192	          134.618416	           10.987084	           -0.225241	            0.005546	           -0.662853	            0.000975	            0.011350	            0.000926
            0.008000	           17.764704	          166.093600	          -14.602380	           -0.213820	            0.006233	           -0.406728	           -0.006781	           -0.063396	            0.005574	           11.620705	          130.566972	           11.066465	           -0.224021	            0.005547	           -0.661861	            0.002122	            0.023841	            0.002021
            0.008500	           17.536568	          162.667722	          -14.433073	           -0.213063	            0.006235	           -0.407171	           -0.017569	           -0.162965	            0.014459	           11.390922	          129.278617	           10.639613	           -0.224847	            0.005549	           -0.663305	            0.006942	            0.078788	            0.006484
            0.009000	           17.674853	          159.783104	          -14.354070	           -0.212839	            0.006235	           -0.407245	           -0.007550	           -0.068254	            0.006132	           11.357324	          125.595801	           10.532635	           -0.224593	            0.005546	           -0.662241	            0.001750	            0.019355	            0.001623
            0.009500	           17.629909	          156.717989	          -14.229529	           -0.212909	            0.006238	           -0.407882	           -0.003641	           -0.032362	            0.002938	           11.271579	          123.385850	           10.477862	           -0.224459	            0.005551	           -0.663432	            0.002010	            0.022001	            0.001868
            0.010000	           17.585475	          152.750956	          -13.971285	           -0.213110	            0.006241	           -0.408552	           -0.000054	           -0.000473	            0.000043	           11.141060	          120.622623	           10.608850	           -0.224905	            0.005546	           -0.662338	            0.001881	            0.020363	            0.001791
            0.010500	           17.677540	          150.047185	          -14.028963	           -0.214440	            0.006231	           -0.406415	            0.004780	            0.040576	           -0.003794	           11.057309	          117.860220	           10.552106	           -0.224699	            0.005544	           -0.661707	           -0.002421	           -0.025802	           -0.002310
            0.011000	           17.862269	          146.981328	          -13.721567	           -0.213861	            0.006236	           -0.407429	            0.005744	            0.047269	           -0.004413	           11.204299	          116.020918	           10.076195	           -0.224614	            0.005549	           -0.663148	            0.002007	            0.020779	            0.001805
            0.011500	           17.404201	          144.998317	          -13.728932	           -0.213826	            0.006233	           -0.406786	           -0.011889	           -0.099048	            0.009378	           11.311997	          112.153814	           10.156213	           -0.224626	            0.005544	           -0.661697	           -0.005938	           -0.058873	           -0.005331
            0.012000	           17.450945	          140.671753	          -13.701741	           -0.213069	            0.006240	           -0.408491	           -0.010105	           -0.081459	            0.007934	           11.272314	          110.129177	            9.820509	           -0.224333	            0.005547	           -0.662095	           -0.003731	           -0.036453	           -0.003251
            0.012500	           17.268798	          138.326887	          -13.390343	           -0.213306	            0.006236	           -0.407578	           -0.007497	           -0.060053	            0.005813	           11.051398	          106.445030	            9.901323	           -0.224193	            0.005542	           -0.660621	           -0.008997	           -0.086657	           -0.008061
            0.013000	           17.407347	          134.000145	          -13.317523	           -0.212827	            0.006244	           -0.409304	            0.004216	            0.032457	           -0.003226	           10.820993	          105.340466	            9.568984	           -0.225390	            0.005545	           -0.662697	           -0.005693	           -0.055422	           -0.005034
            0.013500	           16.950012	          131.114822	          -13.099473	           -0.214121	            0.006239	           -0.408209	            0.000330	            0.002551	           -0.000255	           10.828365	          103.314340	            9.702540	           -0.224631	            0.005551	           -0.663582	            0.006973	            0.066527	            0.006248
            0.014000	           17.317184	          128.771439	          -13.110432	           -0.213628	            0.006237	           -0.407765	            0.003468	            0.025787	           -0.002625	           11.026296	          100.369480	            9.457307	           -0.223690	            0.005553	           -0.663271	           -0.011417	           -0.103924	           -0.009792
            0.014500	           17.317809	          125.346392	          -13.125118	           -0.213852	            0.006245	           -0.409554	            0.001883	            0.013628	           -0.001427	           10.800748	           97.974197	            9.589649	           -0.224317	            0.005551	           -0.663241	           -0.003430	           -0.031115	           -0.003045
            0.015000	           17.089395	          122.822038	          -12.997803	           -0.214071	            0.006239	           -0.408356	           -0.011531	           -0.082875	            0.008770	           10.670771	           95.027818	            9.438412	           -0.223512	            0.005550	           -0.662065	            0.000562	            0.005007	            0.000497
            0.015500	           17.227743	          120.838356	          -12.823224	           -0.213497	            0.006235	           -0.407327	           -0.004016	           -0.028169	            0.002989	           10.586958	           92.265932	            9.240884	           -0.223810	            0.005546	           -0.661472	           -0.005324	           -0.046397	           -0.004647
            0.016000	           17.090916	          118.854817	          -12.693817	           -0.214961	            0.006235	           -0.407452	           -0.004910	           -0.034146	            0.003647	           10.594269	           90.240293	            9.233656	           -0.223554	            0.005552	           -0.662685	           -0.012503	           -0.106502	           -0.010898
            0.016500	           17.046659	          115.788522	          -12.294140	           -0.214755	            0.006230	           -0.406072	            0.003463	            0.023521	           -0.002497	           10.647765	           88.398979	            9.227065	           -0.223190	            0.005558	           -0.663975	           -0.009421	           -0.078217	           -0.008164
            0.017000	           17.092493	          111.463531	          -12.633797	           -0.214939	            0.006244	           -0.409406	            0.017130	            0.111708	           -0.012661	           10.234488	           86.005712	            8.608638	           -0.223473	            0.005556	           -0.663938	            0.000475	            0.003993	            0.000400
